<svg width="242" height="139" viewBox="0 0 242 139" xmlns="http://www.w3.org/2000/svg" xmlns:xlink="http://www.w3.org/1999/xlink">
    <defs>
        <path id="bdpwgzddka" d="M0 0h20.154v21.974H0z"/>
        <path id="oxqi6wkqac" d="M0 0h23.961v19.934H0z"/>
        <path id="smqigceshe" d="M0 0h15.582v8.8H0z"/>
        <path id="v8fp8gokjg" d="M0 0h33.572v8.19H0z"/>
        <path id="sh4i9p428h" d="M0 0h22.993v20.977H0z"/>
    </defs>
    <g fill="none" fill-rule="evenodd">
        <path d="M36.089 110.201c.164-4.038.098-8.085-.167-12.118-.545-8.318-1.915-16.573-3.796-24.689-1.059-4.569-2.362-9.06-3.72-13.547-.042-.135-.257-.097-.22.044 4.2 15.816 7.646 32.139 7.41 48.58-.067 4.602-.6 9.121-1.037 13.694-.011.122.19.17.218.045.867-3.913 1.149-8.013 1.312-12.009" fill="#EAEAEA"/>
        <path d="M28.186 59.89s-6.363 16.153-4.938 19.948c1.424 3.797 4.361 4.607 4.361 4.607s-3.893 5.558-1.173 10.772c2.721 5.213 8.766 4.967 9.168 10.878 0 0 .337-24.716-7.418-46.204" fill="#EAEAEA"/>
        <path d="M34.912 95.89a.126.126 0 0 0-.006-.086c-.894-10.982-2.842-21.93-6.173-32.49-.01-.032-.06-.022-.052.01a233.305 233.305 0 0 1 3.341 14.251c-.826-.85-1.907-1.34-3.037-1.694-.022-.007-.032.024-.012.033 1.177.508 2.305 1.098 3.136 2.095.186.936.368 1.873.54 2.81-1.421-1.588-3.393-2.377-5.366-3.127-.028-.01-.043.033-.016.044 2.055.836 4.102 1.914 5.495 3.685.486 2.68.91 5.37 1.278 8.069a7.692 7.692 0 0 0-3.795-2.175c-.044-.01-.069.055-.024.068a8.02 8.02 0 0 1 3.849 2.465c.007.008.015.012.024.017.127.95.247 1.9.36 2.852a9.79 9.79 0 0 0-2.66-1.605c-.026-.01-.04.03-.014.04a9.141 9.141 0 0 1 2.663 1.764c.012.01.023.009.034.013.106.905.212 1.81.303 2.716-1.459-1.757-3.263-3.03-5.397-3.853-.041-.016-.063.047-.023.065 2.075.902 3.904 2.332 5.319 4.093.039.048.09.056.134.041.138 1.39.26 2.783.363 4.177.001.02.033.021.032.001-.08-1.427-.18-2.854-.296-4.28" fill="#FEFEFE"/>
        <path d="M29.8 74.276c-1.104-.758-2.507-1.082-3.824-1.192-.032-.002-.034.045-.004.05 1.37.202 2.522.699 3.78 1.234.055.023.095-.06.047-.092M30.572 91.376c-.874-.524-1.87-.82-2.87-.98-.035-.006-.038.047-.004.053 1.016.184 1.916.546 2.839.996.039.02.072-.046.035-.069" fill="#FEFEFE"/>
        <path d="M52.817 80.102c-2.654 1.866-5.2 4.017-7.365 6.439-2.308 2.58-3.99 5.508-5.166 8.76a65.48 65.48 0 0 0-3.848 20.95c-.067 3.967.286 7.903 1.135 11.782.03.14.242.1.22-.042a66.089 66.089 0 0 1 .115-20.595c1.094-6.682 2.81-13.95 7.058-19.381 2.313-2.957 5.196-5.283 8.046-7.687.15-.127-.041-.334-.195-.226" fill="#EAEAEA"/>
        <path d="M37.375 111.44s2.185-3.681 5.368-6.863c3.184-3.183 5.865-5.444 6.278-7.55.414-2.104-3.188-3.654-3.188-3.654s4.405.79 5.61-1.058c1.206-1.849 1.787-12.557 1.787-12.557S45.216 85.48 41.483 93.5c-3.734 8.02-4.108 17.94-4.108 17.94" fill="#EAEAEA"/>
        <path d="M50.458 82.503c-3.372 3.312-6.765 6.841-8.752 11.192a42.98 42.98 0 0 0-1.77 4.615l-.002.008c-.102.316-.206.632-.303.95a.115.115 0 0 0-.016.053c-.982 3.25-1.676 6.61-2.277 9.892-.003.022.028.032.033.01.346-1.67.726-3.357 1.152-5.039a.124.124 0 0 0 .048-.01 7.006 7.006 0 0 1 2.103-.533c.047-.005.044-.088-.004-.085a7.86 7.86 0 0 0-2.08.379c.387-1.517.81-3.03 1.284-4.52a22.341 22.341 0 0 1 4.753-.621c.016 0 .02-.025.002-.026a17.972 17.972 0 0 0-4.674.397c.083-.256.17-.51.255-.765 1.044-.238 2.094-.438 3.163-.536.019-.001.017-.034-.002-.034a15.392 15.392 0 0 0-3.097.376c.436-1.29.907-2.562 1.43-3.8a23.07 23.07 0 0 1 1.513-2.939c.857-.194 1.687-.379 2.566-.457.024-.002.022-.041-.003-.043-.796-.051-1.627.009-2.398.237.421-.68.864-1.347 1.338-1.993 1.798-.399 3.62-.768 5.457-.422.032.005.044-.048.012-.056-1.75-.46-3.487-.195-5.228.15.19-.253.384-.503.58-.751 1.104-.341 2.201-.507 3.359-.528.023 0 .027-.035.003-.036a8.762 8.762 0 0 0-3.13.277c1.485-1.846 3.126-3.58 4.748-5.294.075-.08.017-.126-.063-.048" fill="#FEFEFE"/>
        <path d="M50.368 89.802c-.527-.056-1.064-.115-1.594-.055-.064.007-.058.111.006.113.528.016 1.055-.023 1.583.005.04.002.046-.058.005-.063M44.6 100.19c-.842-.01-1.683.216-2.47.495-.02.008-.008.04.011.036.816-.195 1.641-.273 2.465-.409.068-.011.065-.122-.006-.122M42.871 96.601c-.341-.018-.712.043-1.048.095-.035.006-.033.062.003.062.34.007.715.015 1.05-.049.06-.011.058-.105-.005-.108" fill="#FEFEFE"/>
        <path d="M13.882 91.466c2.579.896 5.137 2.049 7.449 3.507 2.463 1.555 4.502 3.537 6.204 5.896a55.123 55.123 0 0 1 7.957 16.065c.971 3.195 1.596 6.462 1.806 9.797.007.121-.173.138-.189.017a55.602 55.602 0 0 0-4.854-16.64c-2.429-5.154-5.498-10.64-10.19-14.054-2.556-1.858-5.427-3.073-8.29-4.36-.15-.068-.043-.28.107-.228" fill="#EAEAEA"/>
        <g transform="translate(13.468 91.283)">
            <mask id="cf8oxusn8b" fill="#fff">
                <use xlink:href="#bdpwgzddka"/>
            </mask>
            <path d="M20.154 21.974s-2.62-2.474-5.93-4.313c-3.312-1.84-6.005-3.05-6.826-4.658-.821-1.608 1.736-3.695 1.736-3.695s-3.383 1.658-4.785.44C2.946 8.531-.001 0-.001 0s7.81 2.778 12.685 8.406c4.875 5.627 7.47 13.568 7.47 13.568" fill="#EAEAEA" mask="url(#cf8oxusn8b)"/>
        </g>
        <path d="M33.215 111.497c-3.905-7.33-9.116-13.96-16.256-18.338-.003-.002-.006.003-.003.005 1.88 1.197 3.612 2.58 5.225 4.09-1.445-.04-2.916.19-4.197.886-.028.015-.008.053.02.043 1.429-.483 2.801-.8 4.32-.73.021.002.035-.009.05-.018.253.24.503.485.75.731-.751.032-1.511.139-2.243.298-.02.004-.014.035.006.031a11.5 11.5 0 0 1 2.37-.196 49.094 49.094 0 0 1 3.683 4.182 3.742 3.742 0 0 0-1.57.114c-.036.011-.027.064.013.06a8.45 8.45 0 0 1 1.674-.024c.214.273.43.543.639.819a15.147 15.147 0 0 0-4.74.46c-.022.006-.016.041.008.037a19.059 19.059 0 0 1 4.867-.317c.2.265.388.536.584.804-.959-.03-1.887.09-2.822.323-.035.009-.025.065.011.056.961-.219 1.938-.274 2.92-.228a78.409 78.409 0 0 1 2.418 3.539c-.41-.084-.839-.039-1.238.074-.02.006-.015.037.007.034.46-.053.889.006 1.34.063a93.13 93.13 0 0 1 2.012 3.276c.054.093.204.024.152-.074" fill="#FEFEFE"/>
        <path d="M27.14 105.417c-.763-.065-1.539.054-2.268.278-.02.006-.016.038.006.033.752-.138 1.495-.19 2.256-.23.05-.004.06-.076.007-.08M20.33 96.484c-.346-.04-.705.006-1.046.06-.04.007-.028.067.011.063.344-.037.684-.024 1.028-.034.056-.002.065-.082.007-.089" fill="#FEFEFE"/>
        <path fill="#DADADA" d="M43.693 137.496H26.068l2.513-18.409.642-4.72h11.314l.643 4.72z"/>
        <path fill="#C7C6C6" d="M41.18 119.087h-12.6l.643-4.72h11.315z"/>
        <path fill="#DADADA" d="M27.605 116.727h14.55v-3.997h-14.55z"/>
        <path stroke="#979797" stroke-linecap="square" d="M1.282 138.078h239.436"/>
        <path stroke="#979797" opacity=".5" stroke-linecap="square" d="M69.663 133.714h77.739"/>
        <g>
            <path fill="#EA9381" d="m67.059 112.831-1.851 3.417 9.687 4.064 2.78-5.48z"/>
            <g transform="translate(61.468 114.715)">
                <mask id="ivx2qrlffd" fill="#fff">
                    <use xlink:href="#oxqi6wkqac"/>
                </mask>
                <path d="M23.961 19.881C24.035 20.749.66 10.738.034 9.876.014 9.847.001 9.791 0 9.71c.004-.77 1.557-3.472 2.856-7.014.081-.227.66-1.278 1.464-2.696l9.816 4.114.075 2.638c2.298.861 9.061 4.946 9.75 13.129" fill="#480E25" mask="url(#ivx2qrlffd)"/>
            </g>
            <path d="M75.639 121.593c-.021-.007-2.126-.648-3.596-.006l-.105-.241c1.559-.683 3.69-.033 3.779-.005l-.078.252z" fill="#EE7874"/>
            <path fill="#EA9381" d="m108.343 120.3-.392 3.86 10.526-.027.455-6.117z"/>
            <path d="M133.928 133.404c.403.772-25.024.594-25.934.042-.03-.018-.064-.066-.096-.14-.295-.713.092-3.804-.083-7.573-.013-.24.114-1.434.306-3.052l10.643-.009 1.09 2.403c2.453-.096 10.27 1.051 14.074 8.329" fill="#480E25"/>
            <path d="M119.867 125.206c-.022.003-2.211.227-3.317 1.388l-.191-.182c1.173-1.233 3.389-1.46 3.482-1.468l.026.262z" fill="#EE7874"/>
            <path d="M79.425 51.232S97.74 82.39 98.23 84.577c.754 3.362 4.749 36.559 4.749 36.559l19.056-.343s-3.285-29.27-6.396-38.912c-2.24-6.946-18.403-29.982-18.403-29.982l-17.81-.667z" fill="#428AC3"/>
            <path d="M120.3 117.871c-2.736-.02-12.434-.13-16.076.211-.028.003-.027.048 0 .052 1.254.18 13.343-.1 16.078-.188.051-.001.05-.074-.001-.075" fill="#263238"/>
            <path d="m80.681 119.895-16.413-6.628s20.35-29.924 20.5-32.151c.134-1.973-8.804-19.142-9.156-24.145-.38-5.4 2.22-9.58 5.076-12.173l16.932 7.198s-1.787 2.86-4.602 4.45c0 0 8.683 19.846 8.19 25.947-.495 6.135-20.527 37.502-20.527 37.502" fill="#428AC3"/>
            <path d="M81.41 116.773c-2.374-1.02-1.678-.761-4.063-1.755-1.167-.487-8.839-3.676-10.007-3.939-.025-.006-.042.035-.02.049 1.022.625 8.748 3.68 9.924 4.145 2.404.947 1.724.649 4.138 1.57.045.017.073-.051.028-.07M95.806 56.083c-1.764.38-3.495 1.003-5.157 1.673-.065.026-.035.123.035.103 1.73-.506 3.49-.978 5.19-1.575.133-.047.067-.23-.068-.2" fill="#263238"/>
            <path d="M93.797 55.387a7.655 7.655 0 0 0-.435.907c-.098.24-.223.498-.222.76 0 .05.068.063.1.032.197-.193.301-.475.426-.717.144-.279.294-.556.43-.84.09-.187-.196-.322-.3-.142" fill="#263238"/>
            <path d="M94.002 53.795c.104-.26.209-.52.318-.78.114-.267.246-.53.338-.805.014-.043.083-.014.066.03-.104.26-.172.538-.254.807-.084.27-.172.537-.26.805-.167.498-.37.993-.584 1.473.277-.004.562-.016.814-.141.273-.136.439-.426.573-.689.15-.291.287-.59.44-.879.17-.32.358-.636.47-.982.014-.044.082-.014.066.03-.255.715-.506 1.429-.902 2.087-.156.26-.282.528-.57.63-.308.109-.645.087-.966.064-.04.011-.09-.014-.077-.062a16.62 16.62 0 0 1 .528-1.588M93.282 57.093c.602 1.276 1.13 2.547 1.694 3.818a100.89 100.89 0 0 1 1.564 3.762 98.554 98.554 0 0 1 2.708 7.777c.393 1.3.754 2.61 1.08 3.927.329 1.322.649 2.657.784 4.014.137 1.362.04 2.709-.34 4.025-.384 1.336-.891 2.503-1.494 3.752-.368.764-.494.661-.316.275.506-1.093 1.829-4.408 1.732-7.195-.046-1.345-.322-2.67-.626-3.976a75.284 75.284 0 0 0-1.041-3.972c-.752-2.591-1.646-5.13-2.565-7.666-.514-1.42-1.067-2.827-1.59-4.244-.526-1.428-1.069-2.713-1.653-4.272-.015-.041.045-.065.063-.025M80.82 52.879c.294-.109.702.071 1.002.122a8.88 8.88 0 0 0 1.163.117c.384.013.771-.003 1.154-.04.382-.037.773-.085 1.105-.292.56-.35 1.029-.965 1.408-1.496.417-.583.85-1.253 1.098-1.928.016-.042.075-.013.062.028-.124.393-.215.79-.373 1.175a7.361 7.361 0 0 1-.541 1.041c-.379.623-.813 1.288-1.462 1.658-.68.389-1.558.366-2.318.322a8.796 8.796 0 0 1-1.307-.174c-.311-.066-.834-.116-1.032-.389-.035-.048-.017-.123.041-.144" fill="#263238"/>
            <path d="M98.56 32.964c1.529 3.355 9.248 7.978 12.864 8.475 2.601.357 10.5.48 13.21.066 3.172-.484.748-9.05-1.128-8.83-5.154.602-9.532 1.273-10.908 1.273-1.68 0-10.773-2.919-11.869-3.33-2.68-1.004-3.035.443-2.169 2.346" fill="#EA9381"/>
            <path d="M98.608 33.852c1.934 2.863 8.366 7.545 8.366 7.545l.893-1.979 2.954-6.537s-5.907-1.864-9.793-2.695a8.609 8.609 0 0 0-1.392-.198c-2.481-.133-2.696 1.401-1.028 3.864" fill="#F5BDC5"/>
            <path d="M98.608 33.852c1.934 2.863 8.366 7.545 8.366 7.545l.331-.733c-2.689-1.847-5.557-4.1-7.687-6.525-2.481-.134-2.678-2.75-1.01-.287" fill="#263238"/>
            <path d="M105.815 40.075c.49-1.202 2.674-6.05 3.216-7.067.037-.071.091-.065.061.013-1.382 3.634-2.689 5.915-3.229 7.07-.014.029-.06.014-.048-.016" fill="#263238"/>
            <g transform="translate(122.56 32.222)">
                <mask id="0wwxdcymzf" fill="#fff">
                    <use xlink:href="#smqigceshe"/>
                </mask>
                <path d="M0 .547C3.137.135 7.018-.57 10.304.827c.645.273.879.754.879.754 1.483.599 1.646 1.48 1.646 1.48 1.212.98 1.254 1.905 1.254 1.905s1.735.722 1.472 1.843c-.29 1.258-2.67-.003-4.402.104C7.184 7.158 1.611 8.616.473 8.8L0 .547z" fill="#EA9381" mask="url(#0wwxdcymzf)"/>
            </g>
            <path d="M129.374 36.468c1.17-.049 2.317-.127 3.487-.018 1.284.121 2.499.452 3.744.759.039.01.056-.043.02-.06-2.167-.91-4.946-1.15-7.254-.734-.056.01-.056.055.003.053M128.878 34.094c1.14.015 3.145.055 6.5 1.224.01.004.02-.013.009-.019-2.077-1.048-4.207-1.421-6.508-1.26-.072.005-.077.053-.001.055M128.635 32.813c1.939.1 3.148.409 5.098.995.011.003.02-.015.008-.02-2.146-.899-3.026-.982-5.112-1.042-.071-.002-.07.063.006.067" fill="#263238"/>
            <path d="M128.95 39.732c-.505.237-.384.504.58.727.976.228 4.973.289 4.832 1.685-.139 1.401-5.794 1.222-7.372.727-1.579-.492-3.957-1.85-3.957-1.85 1.108-.185 3.75-.895 5.917-1.289" fill="#EA9381"/>
            <path d="M102.758 38.312a18.898 18.898 0 0 1-.168 1.826l.026-.065c.118-.318.232-.644.374-.951.008-.016.037-.012.033.008-.062.334-.18.668-.306.982-.061.15-.123.3-.188.45-.044.27-.092.54-.147.805-.104.505-.581 2.653-.69 3.016-.022.077-.113.06-.108-.026.026-.396.427-2.632.507-3.14.155-.972.37-1.964.63-2.914.006-.022.038-.012.037.01" fill="#263238"/>
            <path d="M99.077 54.365c-.941.485-2.156 1.238-7.628.16-.343-.07-.686-.153-1.03-.256-5.133-1.542-11.288-7.577-11.635-8.002 0 0 8.15-13.218 18.577-17.372 1.289-.514 3.423.477 4.604 1.71.422.44 1.337 3.682.985 6.31-.354 2.624-2.924 16.969-3.873 17.45" fill="#F5BDC5"/>
            <path d="M98.35 36.795a2.621 2.621 0 0 1-.23 1.646 2.625 2.625 0 0 1 .23-1.646M94.795 45.795a2.623 2.623 0 0 1-.23 1.647 2.626 2.626 0 0 1 .23-1.647M88.753 38.993a2.621 2.621 0 0 1-.23 1.646 2.625 2.625 0 0 1 .23-1.646M100.678 45.339a2.621 2.621 0 0 1-.23 1.646 2.625 2.625 0 0 1 .23-1.646M92.92 37.826a2.62 2.62 0 0 1 1.645.23 2.625 2.625 0 0 1-1.646-.23M86.062 44.329a2.62 2.62 0 0 1 1.646.23 2.625 2.625 0 0 1-1.646-.23M94.129 51.366a2.62 2.62 0 0 1 1.646.23 2.625 2.625 0 0 1-1.646-.23M83.948 48.81a2.62 2.62 0 0 1 1.646.23 2.625 2.625 0 0 1-1.646-.23M98.298 30.469a2.62 2.62 0 0 1 1.645.23 2.625 2.625 0 0 1-1.645-.23M96.305 32.721a2.624 2.624 0 0 1-1.327 1.002 2.624 2.624 0 0 1 1.327-1.002M85.431 39.122a2.625 2.625 0 0 1-1.325 1.002 2.62 2.62 0 0 1 1.325-1.002M99.006 42.013a2.625 2.625 0 0 1-1.326 1.002 2.62 2.62 0 0 1 1.326-1.002M90.215 47.549a2.625 2.625 0 0 1-1.326 1.002 2.62 2.62 0 0 1 1.326-1.002M102.375 34.447a2.624 2.624 0 0 1-1.327 1.002 2.624 2.624 0 0 1 1.327-1.002M102.19 40.864a2.624 2.624 0 0 1-1.001-1.326c.476.331.812.778 1.002 1.326M82.597 45.283a2.625 2.625 0 0 1-1.002-1.325c.477.33.813.777 1.002 1.325M99.81 50.544a2.624 2.624 0 0 1-1.003-1.326c.477.33.813.777 1.002 1.326M91.183 35.554a2.624 2.624 0 0 1-1.002-1.327c.477.332.813.778 1.002 1.327M91.335 53.537a2.625 2.625 0 0 1-1.002-1.326c.477.331.813.778 1.002 1.326M92.802 42.929a2.625 2.625 0 0 1-1.002-1.326c.477.33.813.777 1.002 1.326" fill="#FEFEFE"/>
            <path d="M100.048 34.122c-1.328-.247-2.581-2.997-2.739-4.848-.01-.126.623-1.134 1.333-2.394.428-.767.887-1.63 1.248-2.449.073-.168.509.393.509.393l.946.724 3.126 2.397s-1.262 1.493-1.884 2.923c-.05.12-.087.237-.113.352-.005.016-.009.037-.017.059-.178.684-1.125 3.081-2.409 2.843" fill="#EA9381"/>
            <path d="M102.474 31.22c-.005.016-.009.037-.017.059a3.563 3.563 0 0 1-.54-.205c-3.421-1.604-1.912-6.19-1.912-6.19l1.34.664 3.126 2.397s-1.262 1.493-1.884 2.924c-.05.12-.087.236-.113.35" fill="#C44E3B"/>
            <path d="M108.06 18.174s1.563.992 1.573 2.757c.01 1.766-.692 3.492-.856 3.554-.163.062-.717-6.311-.717-6.311" fill="#263238"/>
            <path d="M100.301 19.09c-.94 1.855-.892 7.697.281 9.203 1.702 2.183 4.98 2.935 6.958.777 1.918-2.092 1.721-9.705.364-11.124-1.998-2.09-6.214-1.597-7.603 1.144" fill="#EA9381"/>
            <path d="M100.452 28.214c-.002 0-.001-.002 0-.002"/>
            <path d="M100.03 24.088c.646.198 1.39-1.744 1.6-2.49.184-.658.398-2.745.429-2.887.032-.143 2.815 1.847 4.442 1.37 1.628-.475 2.715-1.935 2.737-2.617.023-.681-1.998-2.412-3.746-2.5-1.749-.089-4.115 2.133-4.115 2.133s.804-.96.776-1.039c-.026-.078-1.156.373-1.364 1.178 0 0 .223-1.01.138-1.03-.086-.018-.963.847-.765 1.503 0 0-1.016.88-1.11 1.844-.093.964.22 4.302.979 4.535" fill="#263238"/>
            <path d="M107.658 19.742c-.495.228-.99.478-1.537.55-.592.078-1.205-.07-1.755-.281a5.548 5.548 0 0 1-1.539-.911c-.407-.335-.768-.74-1.202-1.038-.11-.075-.235.082-.168.182.66.99 1.827 1.817 2.953 2.173 1.184.376 2.296.112 3.254-.662.005-.005.002-.017-.006-.013" fill="#263238"/>
            <path d="M100.706 23.915S99.704 21.88 98.8 22.21c-.903.33-.347 3.142.575 3.656.923.515 1.416-.33 1.416-.33l-.085-1.621z" fill="#EA9381"/>
            <path d="M98.98 23.012c-.015-.003-.022.018-.009.026.643.383.907 1.075 1.058 1.774-.165-.286-.421-.468-.799-.277-.02.01-.007.04.013.04.29-.018.486.062.64.317.111.18.172.395.24.594.022.067.138.05.126-.024a1.01 1.01 0 0 1-.003-.016c.152-.872-.34-2.201-1.266-2.434" fill="#C44E3B"/>
            <path d="M94.085 32.996c-.69 4 3.629 17.478 6.41 19.996 4.134 3.744 11.78 6.206 14.55 7.007 1.207.349 4.547-8.148 3.325-8.708-2.615-1.198-10.743-3.734-11.508-4.384-.766-.651-5.436-7.372-7.513-11.247-2.785-5.2-4.915-4.687-5.264-2.664" fill="#EA9381"/>
            <path d="M116.314 50.544s3.605.919 5.935 1.63c1.299.398 3.466 1.277 4.287 2.005 1.23 1.09 5.671 6.432 4.4 7.537-1.152 1-4.386-4.074-4.386-4.074s3.716 4.832 2.109 5.78c-1.608.95-4.5-5.268-4.5-5.268s3.706 5.05 1.894 5.767c-1.37.541-4.306-4.944-4.306-4.944s3.156 4.363 1.77 4.98c-1.53.684-4.557-4.209-4.557-4.209-3.785.978-5.987-.105-7.461-1.062-.357-.231 4.815-8.142 4.815-8.142" fill="#EA9381"/>
            <path d="M125.372 55.889c.457.552.924 1.107 1.33 1.698.406.59.792 1.195 1.142 1.82.858 1.535 1.154 2.63 1.129 2.564-.608-1.552-2.03-3.688-2.437-4.279-.405-.589-.781-1.199-1.187-1.788-.01-.015.012-.028.023-.015M123.214 57.318c.783.62 2.426 2.932 3.06 4.48.026.066-.009.06-.047.001-.497-.765-2.501-3.732-3.032-4.47-.008-.01.008-.02.019-.011M121.14 58.21c.907.898 1.669 2.124 2.267 3.54.028.064-.023.054-.06-.007-.732-1.19-1.298-2.13-2.244-3.501-.014-.021.017-.052.038-.031" fill="#263238"/>
            <path d="M98.015 33.29c-3.224-4.56-5.15-2.87-4.504 2.08.605 4.629 2.227 10.143 2.227 10.143l8.135-3.94-5.858-8.283" fill="#F5BDC5"/>
            <path d="M99.985 35.083c.271.513.369 1.063.285 1.637a2.624 2.624 0 0 1-.285-1.637M95.172 37.855a2.624 2.624 0 0 1 1.637-.284 2.623 2.623 0 0 1-1.637.284M95.381 30.764a2.624 2.624 0 0 1-.957 1.36c.17-.556.493-1.012.957-1.36M102.246 39.985a2.624 2.624 0 0 1-.957 1.359c.17-.555.493-1.012.957-1.36M96.617 42.75a2.623 2.623 0 0 1-1.359-.957c.556.17 1.012.493 1.36.958" fill="#FEFEFE"/>
            <path d="M99.097 34.662c.432.596.881 1.18 1.328 1.765a10.907 10.907 0 0 1-.3-.9c-.003-.014.017-.02.022-.007.09.235.19.465.277.7l.128.34.028.072c.349.456.694.914 1.03 1.38.4.556.785 1.122 1.172 1.687.4.583.78 1.267 1.202 1.834.037.05-.72.355-.79.394-.073.04-.122-.03-.045-.053.07-.022.67-.39.677-.398-.386-.569-.837-1.095-1.242-1.651-.403-.555-.807-1.107-1.199-1.67-.794-1.142-1.524-2.33-2.312-3.477-.01-.016.013-.03.024-.016M93.711 38.644c.124.241.257.48.367.727l.135.308c-.186-.882-.368-1.764-.548-2.647-.002-.01.013-.016.016-.005.373 1.43.75 2.857 1.096 4.293.33 1.368.728 2.754.917 4.15.113-.037.746-.299.764-.257.019.04-.828.44-.839.406-.46-1.365-.745-2.915-1.059-4.32-.088-.395-.17-.792-.255-1.188-.091-.239-.203-.469-.311-.7-.115-.246-.208-.503-.308-.755-.006-.014.018-.026.025-.012" fill="#263238"/>
            <path d="M95.867 44.152c1.13-.637 5.852-3.082 6.909-3.542.073-.032.111.005.04.048-3.34 1.99-5.78 2.967-6.922 3.537-.029.014-.056-.026-.027-.043" fill="#263238"/>
        </g>
        <g>
            <path fill="#FCC529" d="m132.679 58.597-13.86 79.17h95.854l13.86-79.17z"/>
            <path fill="#FCC529" d="m132.725 50.494-1.44 8.103h33.663l-.768-8.103z"/>
            <path d="M214.672 137.766h-95.854l13.86-79.082h95.854l-13.86 79.082zm-49.188-87.272h-31.37l-1.436 8.19h33.572l-.766-8.19z" fill="#F86C66"/>
            <path fill="#FFA29E" d="m103.857 61.714 13.64 76.052h96.074l-13.64-76.052z"/>
            <g fill="#263238">
                <path d="M141.835 103.158a4.034 4.034 0 0 1-4.028 4.041 4.034 4.034 0 0 1-4.028-4.041 4.034 4.034 0 0 1 4.028-4.041 4.034 4.034 0 0 1 4.028 4.041M173.675 103.158a4.034 4.034 0 0 1-4.027 4.041 4.034 4.034 0 0 1-4.028-4.041 4.034 4.034 0 0 1 4.028-4.041 4.034 4.034 0 0 1 4.027 4.041M159.512 107.844l-.22-.423c-.02-.038-2.101-3.897-6.288-3.897-3.819 0-4.75 3.633-4.787 3.788l-.113.463-.924-.224.111-.464c.011-.045 1.135-4.518 5.713-4.518 4.772 0 7.036 4.228 7.13 4.409l.222.422-.844.444z"/>
            </g>
        </g>
        <g>
            <path d="M143.623 11.578c-.597 5.714-5.716 9.863-11.43 9.266a10.34 10.34 0 0 1-5.95-2.686l-5.204.764 2.604-4.5a10.313 10.313 0 0 1-.714-5.008c.597-5.713 5.716-9.862 11.43-9.265 5.712.598 9.862 5.716 9.264 11.43" fill="#FEFEFE"/>
            <g transform="translate(120.688)">
                <mask id="eo6ijy7zvi" fill="#fff">
                    <use xlink:href="#sh4i9p428h"/>
                </mask>
                <path d="M22.935 11.578c.316-3.135-.86-6.39-3.159-8.544A10.496 10.496 0 0 0 15.765.667a10.379 10.379 0 0 0-4.627-.346 10.225 10.225 0 0 0-4.296 1.697 10.72 10.72 0 0 0-3.113 3.395c-.788 1.335-1.196 2.865-1.32 4.401a10.39 10.39 0 0 0 .733 4.532l.037.093-.05.085-2.62 4.49-.185-.274 5.209-.73.072-.01.051.048a10.248 10.248 0 0 0 4.981 2.566c.465.094.937.152 1.411.172.475.05.95.015 1.424-.003.942-.096 1.891-.256 2.779-.611.89-.334 1.75-.77 2.509-1.353.399-.265.736-.606 1.098-.917.32-.354.672-.681.946-1.074 1.194-1.5 1.901-3.351 2.131-5.25m0 0c-.218 1.9-.911 3.761-2.1 5.273-.273.397-.624.728-.943 1.086-.361.315-.698.66-1.097.93a10.256 10.256 0 0 1-2.51 1.397c-.89.374-1.846.553-2.8.667-.482.027-.963.07-1.445.028a9.084 9.084 0 0 1-1.44-.15 10.497 10.497 0 0 1-5.147-2.54l.123.037-5.198.798-.378.058.191-.333 2.588-4.507-.011.177c-1.262-2.969-.977-6.504.64-9.271a10.638 10.638 0 0 1 3.258-3.47 10.49 10.49 0 0 1 4.44-1.665 10.568 10.568 0 0 1 4.704.435 10.623 10.623 0 0 1 4.011 2.46c2.297 2.183 3.452 5.458 3.114 8.59" fill="#263238" mask="url(#eo6ijy7zvi)"/>
            </g>
            <path d="M133.32 15.773c-.263 0-.492-.085-.687-.255-.196-.17-.294-.407-.294-.712 0-.27.095-.499.284-.684a.96.96 0 0 1 .696-.278.93.93 0 0 1 .684.278.932.932 0 0 1 .278.684c0 .3-.098.537-.29.71a.979.979 0 0 1-.672.257m-3.147-7.069c0-.408.131-.822.393-1.241.263-.42.646-.767 1.149-1.042s1.09-.412 1.76-.412c.623 0 1.174.114 1.651.344.478.23.846.543 1.106.94.26.394.39.824.39 1.289 0 .365-.074.686-.222.96a2.934 2.934 0 0 1-.529.714c-.204.2-.57.536-1.1 1.009-.146.133-.263.25-.35.351a1.431 1.431 0 0 0-.198.278 1.404 1.404 0 0 0-.1.251c-.023.084-.059.231-.106.442-.082.447-.337.67-.768.67a.784.784 0 0 1-.564-.219c-.152-.145-.229-.363-.229-.651 0-.36.056-.674.168-.938a2.39 2.39 0 0 1 .445-.697c.185-.2.434-.437.748-.713.275-.24.474-.422.597-.544.122-.123.226-.26.31-.41a.989.989 0 0 0 .125-.49c0-.344-.128-.635-.384-.87-.256-.238-.585-.356-.99-.356-.472 0-.82.12-1.045.358-.223.239-.412.59-.567 1.055-.146.486-.424.729-.832.729a.818.818 0 0 1-.61-.255c-.165-.17-.248-.354-.248-.552" fill="#EC6C33"/>
        </g>
    </g>
</svg>
